<svg viewBox="0 0 228 75" xmlns="http://www.w3.org/2000/svg"><switch><path d="m70.3 21.5c3.8-1.3 6.2-4.4 6.6-5.8s-2.3.4-3.3 1-3.4 2.7-8.8 1.6c-8.9-1.7-10-6.9-10.1-7.1s-.6-.7-1-.7c-.9.1-.5 2.2-.5 2.2s.9 5.6 7.5 8.4c2.8 1.2 6.6 1.4 9.6.4zm-51.8 40.7c.9 1.4 2.7 2.5 3.3 2.2s2.2-3.8 5-6.8 12.3-12.2 22.3-13.9c15.9-2.7 26.8 6.8 28.5 7s3-1.4 2.8-2.6-10.2-4.8-10.2-4.8-9.5-3.7-20-2.4c-14.5 1.7-25.4 13.9-25.4 13.9s4.5-12.9 2.9-13.5c-.6 0-.7 1.3-1.9 4.1-1.9 2.4-7.9 15.7-7.3 16.8zm1.6-9.9c-.8-.1-4 2.1-4 2.1s7.3-10.7 7.1-11.6c-.1-.9-.9-.5-2.3.6-2.8 2.2-9.9 13-9.9 13l-.5 1s-.4 1.6 2.4 3.3c2.1 1 8.6-8.2 7.2-8.4zm38.6-25.6c.3-.4-1.4-1.7-.7-2.3s2.6 1 2.6 1 .7.7.9.7c1-.2-1-2.3-1-2.3s-2.5-2.6-4.5-1.8c-1.3.5-.6 2.5-.2 3.1.6.8 2.3 2.3 2.9 1.6zm-47.8 14.9c-2.8-.4-3.4-3.5-4.2-4.7-1.3-2.1-4-2.8-4.5-2.8s-.3 3.3.8 5.2 4 4.2 7.7 4.1c5.9-.1 14.4-7.7 23.3-11.5 8.4-3.6 20.5-1.6 20.5-1.6s2.2.5 2.3-.8-12.7-4.7-22-1.2c-9.2 3.3-18.6 14-23.9 13.3zm63.2-13.4c.8 1-.6 3.6-.6 3.6s-5.3-1.9-5.8-1.7c-.8.4-2.2 2.9-2.3 4.9-.1 1.3 6.1 3.9 10.9 6.9 2.8 1.7 5.1 3.9 6.4 3.9 1.2 0 2.2-1.5 2.4-2.1.2-.8-2.2-2.2-5.6-3.9-3-1.4-9.9-4.4-9.9-4.9 0-.6.7-1.8.8-1.8 2.2.5 4.8 2 5.4 1.2s1.3-2.1 1.8-5c.5-3-7.7-5.9-7.7-5.9s-.6-.2-.7.1c-.5 1.2 3.4 2.7 4.9 4.7zm77.4-7.4h-7.9s1.8 1.4 1.8 4.2v18.4c0 3-1.8 4.1-1.8 4.1h7.9s-1.8-1.3-1.8-4.1v-18.4c0-3.1 1.8-4.2 1.8-4.2zm67.3 6.9c0-7-9.5-7-9.5-7h-10.2s1.9 1.5 1.9 4.2v18.5c0 2.8-1.9 4.1-1.9 4.1h8s-1.8-1-1.8-4.1v-20.2h3c.4 0 5.9-.1 5.9 4.6 0 5.7-6.2 5.7-6.2 5.7s6.7 8.8 8.8 11.1c2.5 2.8 5.5 2.8 5.5 2.8h3.5l-1.4-.8-1.4-1-1.3-1.3-1.2-1.4-7-8.7c.1.1 5.3-1.6 5.3-6.5zm-79.6 20h-17.8s1.9-1.3 1.9-4.2v-18.6c0-3.1-1.9-4.2-1.9-4.2h17.8v4.4s-1.8-1.9-3.3-1.9h-8.4v8h6.1c3.9 0 4.8-1.4 4.8-1.4v5.2s-.9-1.4-4.8-1.4h-6.1v11.6h8.4c1.6 0 4.1-1.7 4.1-1.7zm32.1-24c-1.6-.5-5-.5-5-.5h-4.4v8.1h7c2.5 0 3.8-1.3 3.8-1.3v5s-1.1-1.4-3.8-1.4h-7v8.6s0-4.6 0 0 1.9 5.5 1.9 5.5h-8.1s1.9-.9 1.9-5.5v-16s0 4.4 0 0-1.9-5.5-1.9-5.5h17.8v4.5c.1 0-.9-1.1-2.2-1.5zm-53.8-5.9h-8.7s2.1 1.1 2.1 4.2v9.2h-15v-9.2c0-3.1 2.1-4.2 2.1-4.2h-8.7s2 1.3 2 4.2v21.5c0 2.7-2 4.2-2 4.2h8.7s-2.1-1.1-2.1-4.2v-9.8h15v9.8c0 3-2.1 4.2-2.1 4.2h8.7s-2-1.5-2-4.2v-21.5c0-2.9 2-4.2 2-4.2zm102.7 5.9c0 1.7 1.3 3 2.9 3s2.9-1.3 2.9-3-1.3-3-2.9-3-2.9 1.4-2.9 3zm.6 0c0-1.4 1-2.4 2.3-2.4s2.3 1.1 2.3 2.4c0 1.4-1 2.4-2.3 2.4-1.3.1-2.3-1-2.3-2.4zm1.3 1.6h.6v-1.2h.5l.6 1.2h.6l-.6-1.1c-.1-.1-.1-.2-.1-.2.3-.1.6-.3.6-.8 0-.6-.4-.9-1-.9h-1.2zm.6-1.7v-1h.5c.3 0 .5.2.5.5s-.2.5-.5.5zm-27.9 24.1h-17.8s1.9-1.3 1.9-4.2v-18.6c0-3.1-1.9-4.2-1.9-4.2h17.8v4.4s-1.8-1.9-3.3-1.9h-8.4v8h6.1c3.9 0 4.8-1.4 4.8-1.4v5.2s-.9-1.4-4.8-1.4h-6.1v11.5h8.4c1.6 0 4.1-1.7 4.1-1.7zm-2.2 11.4c0-2.4-1.8-4.5-4.5-4.5-2.1 0-4.7 1.6-4.7 4.8 0 2.2 1.6 4.4 4.6 4.4 2.2 0 4.6-1.5 4.6-4.7zm-1.9.1c0 1.9-1.2 3.4-2.7 3.4s-2.7-1.5-2.7-3.4 1.2-3.4 2.7-3.4 2.7 1.5 2.7 3.4zm-38.5-2.3v7.6l-6.1-6.6v3.6c0 1.7 1 2.4 1 2.4h-3.3s1-.8 1-2.4v-4.7c0-.6-1.7-2.2-1.7-2.2h2.6l5.3 5.7v-3.5c0-1.6-1.2-2.3-1.2-2.3h3.6c0 .1-1.2.7-1.2 2.4zm-46 0v7.6l-6.1-6.6v3.6c0 1.7.9 2.4.9 2.4h-2.9s.7-.8.7-2.4v-4.7c0-.6-1.6-2.2-1.6-2.2h2.5l5.3 5.7v-3.5c0-1.6-1.1-2.3-1.1-2.3h3.4c0 .1-1.1.7-1.1 2.4zm97.7 0v7.6l-6.1-6.6v3.6c0 1.7.9 2.4.9 2.4h-2.9s.7-.8.7-2.4v-4.7c0-.6-1.6-2.2-1.6-2.2h2.5l5.3 5.7v-3.5c0-1.6-1.1-2.3-1.1-2.3h3.4c0 .1-1.1.7-1.1 2.4zm-82.2 7s.8-.9.8-2v-5.4c0-1.1-.8-1.8-.8-1.8h6.8v1.8s-.6-.8-1.7-.8h-2.4v2.9h2.7c.6 0 1.1-.8 1.1-.8v2.5s-.4-.8-1.1-.8h-2.7v3.3h2.4c1.3 0 2-.9 2-.9l-.2 2zm97-.1s.8-.6.8-1.2v-7.1c0-.4-.8-1.1-.8-1.1h3.4s-.9.5-.9 1.1v7h1.7c1.4 0 2.2-.9 2.2-.9l-.4 2h-6zm-79.3-6.8c0-2.4-3.2-2.4-3.6-2.4h-3.5s.7.5.7 1.5v6.4c0 1-.7 1.4-.7 1.4h3.1s-.6-.4-.6-1.4v-6.9h1.1c.2 0 1.7.1 1.7 1.5 0 2-2.3 2-2.3 2s2.3 3 3 3.9c.9 1 1.9 1 1.9 1h1.4l-.5-.3-.5-.4-.4-.4-.4-.5-2.4-3c0-.1 2-.7 2-2.4zm-21.3-.4v-2h-7.8v2s.9-.8 1.7-.8h1.3v5.7c0 1.6-.8 2.4-.8 2.4h3.4s-.8-.8-.8-2.4v-5.7h1.3c.9 0 1.7.8 1.7.8zm55.5 0v-2h-7.8v2s.9-.8 1.7-.8h1.3v5.7c0 1.6-.7 2.4-.7 2.4h3.4s-.8-.8-.8-2.4v-5.7h1.3c.7 0 1.6.8 1.6.8zm-80.1-2h-3.5s.8.5.9 1.2v6.5c-.1.7-.9 1.6-.9 1.6h3.5s-.7-.8-.8-1.6v-6.5c.1-.7.8-1.2.8-1.2zm71.4 9.3s-.6-.4-1-1c-.4-.7-4-8.7-4-8.7s-3.8 8.2-4 8.5c-.2.4-1.1 1.2-1.1 1.2h2.7s-.4-.8-.2-1.2c.2-.5.7-1.7.7-1.7h2.8s.6 1.2.8 1.7-.2 1.1-.2 1.1h3.5zm-4.3-3.7h-2l1.1-2.3zm55.7 3.7s-.6-.4-1-1c-.4-.7-4-8.7-4-8.7s-3.8 8.2-4 8.5c-.2.4-1.1 1.2-1.1 1.2h2.7s-.4-.8-.2-1.2c.2-.5.7-1.7.7-1.7h2.8s.6 1.2.8 1.7-.2 1.1-.2 1.1h3.5zm-4.4-3.7h-2l1.1-2.3zm-31.5-5.6h-3.5s.8.5.9 1.2v6.5c-.1.7-.9 1.6-.9 1.6h3.5s-.7-.8-.8-1.6v-6.5c.1-.8.8-1.2.8-1.2z" fill="#2a4153"/></switch></svg>