<svg id="Layer_1" data-name="Layer 1" xmlns="http://www.w3.org/2000/svg" viewBox="0 0 500.01 417.98"><defs><style>.cls-1{fill:#6276b8;}.cls-2{fill:#ad589e;}.cls-3{fill:#3bad5e;}.cls-4{fill:#ee7663;}.cls-5{fill:#ffed33;}.cls-6{fill:#00afe0;}</style></defs><title>Logo-HE portrait-01</title><path class="cls-1" d="M73.15,386H69.84a3.37,3.37,0,0,1-3.37-3.37V349.12a3.38,3.38,0,0,0-3.38-3.38H25.18a3.37,3.37,0,0,0-3.37,3.38v33.55A3.37,3.37,0,0,1,18.43,386H15a3.37,3.37,0,0,1-3.37-3.37V303A3.37,3.37,0,0,1,15,299.63h3.43A3.37,3.37,0,0,1,21.81,303v30.3a3.37,3.37,0,0,0,3.37,3.37H63.09a3.37,3.37,0,0,0,3.38-3.37V303a3.37,3.37,0,0,1,3.37-3.37h3.31A3.37,3.37,0,0,1,76.53,303v79.67A3.37,3.37,0,0,1,73.15,386Z"/><path class="cls-1" d="M124.91,387.15q-13,0-20.41-7.82t-7.39-21.14V347.43q0-13.08,7.56-21t19.48-7.91q11.92,0,19.49,7.91t7.56,21v4.77a3.37,3.37,0,0,1-3.38,3.37H110.49a3.37,3.37,0,0,0-3.37,3.38h0q0,8.43,4.68,13.89t13.11,5.47a18.73,18.73,0,0,0,9.74-2.35,12,12,0,0,0,4.3-4.08,3.31,3.31,0,0,1,2.86-1.6h3.57a3.38,3.38,0,0,1,2.92,5.08l-.3.51a25.46,25.46,0,0,1-4.71,5.41,22.57,22.57,0,0,1-7.77,4.24A32.67,32.67,0,0,1,124.91,387.15ZM107.12,347.9h34v-1.17A23.29,23.29,0,0,0,139,336.5a15.57,15.57,0,0,0-6-6.78,16.8,16.8,0,0,0-8.92-2.35,15.66,15.66,0,0,0-12.3,5.26q-4.68,5.26-4.68,14.1Z"/><path class="cls-1" d="M171,382.67V298.41A3.37,3.37,0,0,1,174.4,295h3.31a3.37,3.37,0,0,1,3.38,3.37v84.26a3.37,3.37,0,0,1-3.38,3.37H174.4A3.37,3.37,0,0,1,171,382.67Z"/><path class="cls-1" d="M234.24,387.15q-14.31,0-19.13-10.93h-.47v29.71a3.37,3.37,0,0,1-3.37,3.38h-3.2a3.37,3.37,0,0,1-3.37-3.38V323a3.37,3.37,0,0,1,3.37-3.37h2.67a3.37,3.37,0,0,1,3.38,3.37v7.15h.52a16.53,16.53,0,0,1,7-8.26q5.21-3.31,13-3.31,11.64,0,18.58,7.62t7,20.58V359q0,13.08-7.06,20.64T234.24,387.15Zm-1.34-8.84q8,0,12.71-5.52t4.74-16.29v-7.38q0-10.65-4.74-16.2t-13.09-5.55q-8.34,0-13.11,5.38t-4.77,14.56v12.33a18.7,18.7,0,0,0,5,13.41Q224.65,378.32,232.9,378.31Z"/><path class="cls-1" d="M332.28,380.23v2.44a3.37,3.37,0,0,1-3.37,3.37h-44.6a3.37,3.37,0,0,1-3.37-3.37V303a3.37,3.37,0,0,1,3.37-3.37h44.6a3.37,3.37,0,0,1,3.37,3.37v2.44a3.37,3.37,0,0,1-3.37,3.38H294.49a3.37,3.37,0,0,0-3.38,3.37v21.69a3.37,3.37,0,0,0,3.38,3.37h32.1a3.37,3.37,0,0,1,3.37,3.38v2.44a3.37,3.37,0,0,1-3.37,3.37h-32.1a3.38,3.38,0,0,0-3.38,3.38v23.66a3.38,3.38,0,0,0,3.38,3.38h34.42A3.37,3.37,0,0,1,332.28,380.23Z"/><path class="cls-1" d="M377.47,386h-3.32a3.37,3.37,0,0,1-3.37-3.37v-70.6a3.37,3.37,0,0,0-3.37-3.37H347.64a3.37,3.37,0,0,1-3.38-3.37V303a3.37,3.37,0,0,1,3.38-3.37h56.29A3.37,3.37,0,0,1,407.3,303v2.33a3.37,3.37,0,0,1-3.37,3.37H384.21a3.37,3.37,0,0,0-3.37,3.37v70.6A3.37,3.37,0,0,1,377.47,386Z"/><path class="cls-1" d="M484.06,386h-3.31a3.37,3.37,0,0,1-3.37-3.37V349.12a3.38,3.38,0,0,0-3.38-3.38H436.09a3.37,3.37,0,0,0-3.37,3.38v33.55a3.38,3.38,0,0,1-3.38,3.37h-3.43a3.37,3.37,0,0,1-3.37-3.37V303a3.37,3.37,0,0,1,3.37-3.37h3.43a3.38,3.38,0,0,1,3.38,3.37v30.3a3.37,3.37,0,0,0,3.37,3.37H474a3.37,3.37,0,0,0,3.38-3.37V303a3.37,3.37,0,0,1,3.37-3.37h3.31a3.37,3.37,0,0,1,3.38,3.37v79.67A3.37,3.37,0,0,1,484.06,386Z"/><path class="cls-2" d="M257.41,101.71l59.76,81.64a1.56,1.56,0,0,1-.22,2.08,100.35,100.35,0,0,1-60.72,25.51,1.55,1.55,0,0,1-1.65-1.57V102.63A1.56,1.56,0,0,1,257.41,101.71Z"/><path class="cls-3" d="M242.83,210.94a100.38,100.38,0,0,1-60.72-25.51,1.56,1.56,0,0,1-.21-2.09l59.76-81.63a1.56,1.56,0,0,1,2.83.92V209.37A1.56,1.56,0,0,1,242.83,210.94Z"/><path class="cls-4" d="M350.77,109.92a100.51,100.51,0,0,1-24.29,65.79,1.57,1.57,0,0,1-2.46-.09L254.88,81.17a1.53,1.53,0,0,1-.3-.92V10.47a1.56,1.56,0,0,1,1.65-1.57,101.25,101.25,0,0,1,94.54,101Z"/><path class="cls-5" d="M180,36.39A100.42,100.42,0,0,1,242.83,8.9a1.57,1.57,0,0,1,1.66,1.57V80.25a1.6,1.6,0,0,1-.3.92l-69.14,94.45a1.57,1.57,0,0,1-2.46.09,100.35,100.35,0,0,1-24.26-63.37A101.53,101.53,0,0,1,180,36.39Z"/><path class="cls-6" d="M243.17,219.86A109.56,109.56,0,0,1,189,201.92a1.57,1.57,0,0,0-2.08,2.29l55,68.48a1.57,1.57,0,0,0,2.79-1V221.42A1.55,1.55,0,0,0,243.17,219.86Z"/><path class="cls-1" d="M254.59,221.41v49.43a1.57,1.57,0,0,0,2.78,1l55.51-68.1a1.57,1.57,0,0,0-2.08-2.3,109.6,109.6,0,0,1-54.72,18.42A1.56,1.56,0,0,0,254.59,221.41Z"/></svg>