<svg id="Layer_1" data-name="Layer 1" xmlns="http://www.w3.org/2000/svg" viewBox="0 0 747.71 279.94"><defs><style>.cls-1{fill:#6276b8;}.cls-2{fill:#ad589e;}.cls-3{fill:#3bad5e;}.cls-4{fill:#ee7663;}.cls-5{fill:#ffed33;}.cls-6{fill:#00afe0;}</style></defs><title>Logo-HE landscape-02</title><path class="cls-1" d="M302,195.32h-3.31a3.38,3.38,0,0,1-3.38-3.38V158.39A3.37,3.37,0,0,0,292,155H254a3.37,3.37,0,0,0-3.37,3.37v33.55a3.37,3.37,0,0,1-3.37,3.38h-3.43a3.38,3.38,0,0,1-3.38-3.38V112.27a3.37,3.37,0,0,1,3.38-3.37h3.43a3.37,3.37,0,0,1,3.37,3.37v30.3a3.37,3.37,0,0,0,3.37,3.37H292a3.37,3.37,0,0,0,3.37-3.37v-30.3a3.37,3.37,0,0,1,3.38-3.37H302a3.37,3.37,0,0,1,3.37,3.37v79.67A3.37,3.37,0,0,1,302,195.32Z"/><path class="cls-1" d="M353.78,196.42q-13,0-20.42-7.82T326,167.46V156.7q0-13.08,7.56-21T353,127.8q11.93,0,19.48,7.91t7.56,21v4.77a3.37,3.37,0,0,1-3.37,3.37H339.35a3.37,3.37,0,0,0-3.37,3.38h0q0,8.43,4.68,13.89t13.12,5.47a18.66,18.66,0,0,0,9.74-2.35,12.1,12.1,0,0,0,4.3-4.07,3.29,3.29,0,0,1,2.86-1.6h3.57a3.38,3.38,0,0,1,2.92,5.08l-.31.5a24.91,24.91,0,0,1-4.71,5.41,22.52,22.52,0,0,1-7.76,4.24A32.76,32.76,0,0,1,353.78,196.42ZM336,157.17h34V156a23.46,23.46,0,0,0-2.12-10.23,15.68,15.68,0,0,0-6-6.78,16.84,16.84,0,0,0-8.93-2.35,15.66,15.66,0,0,0-12.3,5.26Q336,147.17,336,156Z"/><path class="cls-1" d="M399.89,191.94V107.68a3.37,3.37,0,0,1,3.37-3.37h3.32a3.37,3.37,0,0,1,3.37,3.37v84.26a3.37,3.37,0,0,1-3.37,3.38h-3.32A3.37,3.37,0,0,1,399.89,191.94Z"/><path class="cls-1" d="M463.1,196.42q-14.3,0-19.13-10.93h-.46V215.2a3.38,3.38,0,0,1-3.38,3.38h-3.2a3.37,3.37,0,0,1-3.37-3.38v-83a3.37,3.37,0,0,1,3.37-3.37h2.68a3.37,3.37,0,0,1,3.37,3.37v7.15h.53a16.55,16.55,0,0,1,7-8.26q5.21-3.32,13.06-3.31,11.63,0,18.58,7.62t7,20.58v12.22q0,13.08-7.07,20.64T463.1,196.42Zm-1.33-8.84q8,0,12.7-5.52t4.74-16.29v-7.38q0-10.65-4.74-16.2t-13.08-5.55q-8.36,0-13.11,5.38t-4.77,14.57v12.32a18.66,18.66,0,0,0,5,13.41Q453.51,187.59,461.77,187.58Z"/><path class="cls-1" d="M561.15,189.5v2.44a3.37,3.37,0,0,1-3.37,3.38H513.17a3.37,3.37,0,0,1-3.37-3.38V112.27a3.37,3.37,0,0,1,3.37-3.37h44.61a3.37,3.37,0,0,1,3.37,3.37v2.45a3.37,3.37,0,0,1-3.37,3.37H523.35a3.37,3.37,0,0,0-3.37,3.37v21.69a3.37,3.37,0,0,0,3.37,3.38h32.1a3.37,3.37,0,0,1,3.37,3.37v2.44a3.37,3.37,0,0,1-3.37,3.37h-32.1a3.37,3.37,0,0,0-3.37,3.38v23.66a3.37,3.37,0,0,0,3.37,3.38h34.43A3.37,3.37,0,0,1,561.15,189.5Z"/><path class="cls-1" d="M606.33,195.32H603a3.37,3.37,0,0,1-3.37-3.38V121.35a3.38,3.38,0,0,0-3.38-3.38H576.5a3.37,3.37,0,0,1-3.37-3.37v-2.33a3.37,3.37,0,0,1,3.37-3.37h56.29a3.37,3.37,0,0,1,3.38,3.37v2.33a3.37,3.37,0,0,1-3.38,3.37H613.08a3.37,3.37,0,0,0-3.37,3.38v70.59A3.38,3.38,0,0,1,606.33,195.32Z"/><path class="cls-1" d="M712.93,195.32h-3.32a3.37,3.37,0,0,1-3.37-3.38V158.39a3.37,3.37,0,0,0-3.37-3.37H665a3.37,3.37,0,0,0-3.37,3.37v33.55a3.37,3.37,0,0,1-3.37,3.38h-3.43a3.38,3.38,0,0,1-3.38-3.38V112.27a3.37,3.37,0,0,1,3.38-3.37h3.43a3.37,3.37,0,0,1,3.37,3.37v30.3a3.37,3.37,0,0,0,3.37,3.37h37.92a3.37,3.37,0,0,0,3.37-3.37v-30.3a3.37,3.37,0,0,1,3.37-3.37h3.32a3.37,3.37,0,0,1,3.37,3.37v79.67A3.37,3.37,0,0,1,712.93,195.32Z"/><path class="cls-2" d="M121.64,100,181.4,181.6a1.58,1.58,0,0,1-.21,2.09,100.39,100.39,0,0,1-60.73,25.5,1.55,1.55,0,0,1-1.65-1.56V100.88A1.57,1.57,0,0,1,121.64,100Z"/><path class="cls-3" d="M107.06,209.19a100.37,100.37,0,0,1-60.72-25.5,1.56,1.56,0,0,1-.21-2.09L105.89,100a1.57,1.57,0,0,1,2.83.92V207.63A1.56,1.56,0,0,1,107.06,209.19Z"/><path class="cls-4" d="M215,108.17A100.49,100.49,0,0,1,190.71,174a1.57,1.57,0,0,1-2.46-.08L119.11,79.43a1.56,1.56,0,0,1-.3-.93V8.72a1.56,1.56,0,0,1,1.65-1.56,101.23,101.23,0,0,1,94.54,101Z"/><path class="cls-5" d="M44.18,34.64A100.4,100.4,0,0,1,107.06,7.16a1.56,1.56,0,0,1,1.66,1.56V78.5a1.63,1.63,0,0,1-.3.93L39.28,173.87a1.57,1.57,0,0,1-2.46.09,100.33,100.33,0,0,1-24.26-63.37A101.55,101.55,0,0,1,44.18,34.64Z"/><path class="cls-6" d="M107.41,218.11a109.6,109.6,0,0,1-54.19-17.94,1.57,1.57,0,0,0-2.08,2.29l55,68.48a1.57,1.57,0,0,0,2.79-1V219.67A1.57,1.57,0,0,0,107.41,218.11Z"/><path class="cls-1" d="M118.82,219.66v49.43a1.57,1.57,0,0,0,2.79,1l55.5-68.1a1.56,1.56,0,0,0-2.08-2.29,109.59,109.59,0,0,1-54.72,18.41A1.58,1.58,0,0,0,118.82,219.66Z"/></svg>