<svg width="130" height="48" viewBox="0 0 130 48" fill="none" xmlns="http://www.w3.org/2000/svg">
    <path d="M52.5809 33.4906H52.0088C51.8539 33.4906 51.7053 33.4295 51.5957 33.3209C51.4862 33.2122 51.4246 33.0648 51.4246 32.9111V27.1584C51.4256 27.0063 51.366 26.86 51.2589 26.7512C51.1518 26.6424 51.0058 26.5798 50.8525 26.5771H44.2848C44.1303 26.5771 43.9822 26.638 43.8729 26.7464C43.7637 26.8547 43.7023 27.0017 43.7023 27.155V32.9076C43.7026 32.9836 43.6877 33.059 43.6585 33.1293C43.6293 33.1996 43.5865 33.2635 43.5324 33.3173C43.4782 33.3712 43.414 33.4139 43.3432 33.443C43.2724 33.4722 43.1965 33.4872 43.1199 33.4872H42.5271C42.3721 33.4872 42.2235 33.4261 42.114 33.3174C42.0044 33.2087 41.9429 33.0613 41.9429 32.9076V19.2504C41.9429 19.1744 41.958 19.0991 41.9874 19.0289C42.0168 18.9587 42.0598 18.8949 42.1141 18.8412C42.1683 18.7875 42.2328 18.745 42.3036 18.7161C42.3745 18.6871 42.4504 18.6723 42.5271 18.6726H43.1199C43.2744 18.6726 43.4225 18.7335 43.5317 18.8418C43.641 18.9502 43.7023 19.0972 43.7023 19.2504V24.4458C43.7023 24.5991 43.7637 24.746 43.8729 24.8544C43.9822 24.9628 44.1303 25.0236 44.2848 25.0236H50.8525C51.007 25.0236 51.1552 24.9628 51.2644 24.8544C51.3736 24.746 51.435 24.5991 51.435 24.4458V19.2504C51.435 19.1744 51.4501 19.0991 51.4795 19.0289C51.5089 18.9587 51.5519 18.8949 51.6062 18.8412C51.6605 18.7875 51.7249 18.745 51.7957 18.7161C51.8666 18.6871 51.9425 18.6723 52.0192 18.6726H52.5809C52.7354 18.6726 52.8835 18.7335 52.9928 18.8418C53.102 18.9502 53.1633 19.0972 53.1633 19.2504V32.9111C53.1636 32.9871 53.1487 33.0624 53.1195 33.1327C53.0903 33.203 53.0475 33.2669 52.9934 33.3208C52.9393 33.3746 52.875 33.4173 52.8042 33.4465C52.7334 33.4756 52.6575 33.4906 52.5809 33.4906Z" fill="#6276B8"/>
    <path d="M61.5305 33.6792C60.0325 33.6792 58.8561 33.2323 58.0012 32.3384C57.1462 31.4444 56.7222 30.2362 56.7291 28.7136V26.8686C56.7291 25.3734 57.1646 24.1732 58.0357 23.2678C58.9068 22.3625 60.0268 21.911 61.3956 21.9133C62.7703 21.9133 63.8925 22.3654 64.7625 23.2696C65.6324 24.1737 66.068 25.374 66.0691 26.8703V27.6882C66.0691 27.8415 66.0077 27.9884 65.8985 28.0968C65.7893 28.2052 65.6411 28.2661 65.4867 28.2661H59.0364C58.9598 28.2661 58.8839 28.2811 58.8131 28.3102C58.7424 28.3393 58.6781 28.3821 58.624 28.4359C58.5699 28.4897 58.527 28.5536 58.4978 28.624C58.4687 28.6943 58.4538 28.7696 58.454 28.8456C58.454 29.8092 58.7236 30.6031 59.2629 31.2273C59.8021 31.8514 60.558 32.164 61.5305 32.1652C62.1181 32.1856 62.7003 32.0463 63.2139 31.7622C63.516 31.5943 63.7714 31.3545 63.9571 31.0644C64.0081 30.9798 64.0806 30.9099 64.1673 30.8618C64.2541 30.8137 64.352 30.7889 64.4514 30.79H65.0684C65.1711 30.7901 65.272 30.817 65.3608 30.868C65.4497 30.919 65.5235 30.9924 65.5746 31.0808C65.6258 31.1691 65.6526 31.2692 65.6523 31.3711C65.6521 31.473 65.6247 31.573 65.5731 31.6611L65.5195 31.7468C65.2947 32.0934 65.0205 32.4058 64.7054 32.6744C64.3112 33.0023 63.8553 33.2494 63.3642 33.4014C62.7725 33.5934 62.153 33.6873 61.5305 33.6792ZM58.4574 26.9492H64.3338V26.7486C64.3462 26.144 64.2209 25.5444 63.9674 24.9945C63.7445 24.5143 63.3838 24.1099 62.9304 23.832C62.4638 23.5576 61.9293 23.418 61.387 23.429C60.9875 23.4143 60.5897 23.4875 60.2221 23.6434C59.8545 23.7994 59.5263 24.0342 59.2611 24.3309C58.7253 24.9333 58.4574 25.7392 58.4574 26.7486V26.9492Z" fill="#6276B8"/>
    <path d="M69.5 32.9111V18.4634C69.5 18.3875 69.5151 18.3124 69.5443 18.2423C69.5736 18.1721 69.6165 18.1084 69.6706 18.0548C69.7247 18.0011 69.7889 17.9586 69.8596 17.9295C69.9302 17.9005 70.006 17.8855 70.0825 17.8855H70.6563C70.7328 17.8855 70.8085 17.9005 70.8792 17.9295C70.9498 17.9586 71.014 18.0011 71.0681 18.0548C71.1222 18.1084 71.1651 18.1721 71.1944 18.2423C71.2237 18.3124 71.2387 18.3875 71.2387 18.4634V32.9111C71.239 32.9871 71.2241 33.0624 71.1949 33.1327C71.1657 33.203 71.1228 33.2669 71.0687 33.3208C71.0146 33.3746 70.9503 33.4173 70.8796 33.4465C70.8088 33.4756 70.7329 33.4906 70.6563 33.4906H70.0825C70.0058 33.4906 69.9299 33.4756 69.8592 33.4465C69.7884 33.4173 69.7241 33.3746 69.67 33.3208C69.6159 33.2669 69.573 33.203 69.5438 33.1327C69.5147 33.0624 69.4998 32.9871 69.5 32.9111Z" fill="#6276B8"/>
    <path d="M80.4249 33.6792C78.7772 33.6792 77.6751 33.0545 77.1186 31.8051H77.0391V36.8993C77.0391 37.053 76.9775 37.2005 76.8679 37.3091C76.7584 37.4178 76.6098 37.4789 76.4549 37.4789H75.9018C75.8252 37.4789 75.7493 37.4639 75.6785 37.4347C75.6077 37.4056 75.5434 37.3629 75.4893 37.309C75.4352 37.2552 75.3923 37.1913 75.3632 37.121C75.334 37.0507 75.3191 36.9754 75.3193 36.8993V22.6677C75.3193 22.5145 75.3807 22.3675 75.4899 22.2591C75.5992 22.1508 75.7473 22.0899 75.9018 22.0899H76.365C76.5195 22.0899 76.6676 22.1508 76.7769 22.2591C76.8861 22.3675 76.9475 22.5145 76.9475 22.6677V23.8937H77.0391C77.2709 23.3004 77.697 22.8016 78.2489 22.4774C78.8492 22.0979 79.6016 21.9087 80.5061 21.9098C81.8462 21.9098 82.9166 22.3454 83.7174 23.2164C84.5182 24.0874 84.9215 25.2637 84.9273 26.7452V28.8405C84.9273 30.3356 84.5199 31.5153 83.7053 32.3795C82.8907 33.2437 81.7972 33.6769 80.4249 33.6792ZM80.195 32.1635C81.1168 32.1635 81.8485 31.848 82.39 31.217C82.9316 30.586 83.2047 29.6549 83.2093 28.4238V27.1584C83.2093 25.941 82.9362 25.0151 82.39 24.3807C81.8439 23.7462 81.0903 23.429 80.1294 23.429C79.1661 23.429 78.4108 23.7365 77.8635 24.3515C77.3162 24.9665 77.0414 25.7992 77.0391 26.8498V28.9622C77.0235 29.383 77.0918 29.8028 77.2401 30.1973C77.3884 30.5919 77.6137 30.9536 77.9032 31.2616C78.4793 31.864 79.2433 32.1646 80.195 32.1635Z" fill="#6276B8"/>
    <path d="M97.3712 32.4927V32.9111C97.3714 32.9871 97.3565 33.0624 97.3274 33.1327C97.2982 33.203 97.2553 33.2669 97.2012 33.3208C97.1471 33.3746 97.0828 33.4173 97.012 33.4465C96.9413 33.4756 96.8654 33.4906 96.7887 33.4906H89.0786C89.0019 33.4906 88.926 33.4756 88.8553 33.4465C88.7845 33.4173 88.7202 33.3746 88.6661 33.3208C88.612 33.2669 88.5691 33.203 88.5399 33.1327C88.5108 33.0624 88.4959 32.9871 88.4961 32.9111V19.2504C88.4961 19.0972 88.5575 18.9502 88.6667 18.8418C88.7759 18.7335 88.9241 18.6726 89.0786 18.6726H96.7887C96.9432 18.6726 97.0914 18.7335 97.2006 18.8418C97.3098 18.9502 97.3712 19.0972 97.3712 19.2504V19.6705C97.3712 19.8238 97.3098 19.9707 97.2006 20.0791C97.0914 20.1875 96.9432 20.2483 96.7887 20.2483H90.838C90.6835 20.2483 90.5354 20.3092 90.4262 20.4176C90.3169 20.526 90.2556 20.6729 90.2556 20.8262V24.5453C90.2553 24.6213 90.2702 24.6966 90.2994 24.7669C90.3286 24.8372 90.3714 24.9011 90.4255 24.955C90.4797 25.0088 90.5439 25.0515 90.6147 25.0807C90.6855 25.1098 90.7614 25.1248 90.838 25.1248H96.386C96.5405 25.1248 96.6887 25.1857 96.7979 25.2941C96.9071 25.4024 96.9685 25.5494 96.9685 25.7027V26.121C96.9685 26.2743 96.9071 26.4213 96.7979 26.5296C96.6887 26.638 96.5405 26.6989 96.386 26.6989H90.838C90.7614 26.6989 90.6855 26.7139 90.6147 26.743C90.5439 26.7722 90.4797 26.8149 90.4255 26.8687C90.3714 26.9226 90.3286 26.9865 90.2994 27.0568C90.2702 27.1271 90.2553 27.2024 90.2556 27.2784V31.3353C90.2553 31.4113 90.2702 31.4866 90.2994 31.5569C90.3286 31.6272 90.3714 31.6912 90.4255 31.745C90.4797 31.7988 90.5439 31.8415 90.6147 31.8707C90.6855 31.8998 90.7614 31.9148 90.838 31.9148H96.7887C96.9432 31.9148 97.0914 31.9757 97.2006 32.0841C97.3098 32.1925 97.3712 32.3394 97.3712 32.4927Z" fill="#6276B8"/>
    <path d="M105.18 33.4906H104.604C104.528 33.4906 104.452 33.4756 104.381 33.4465C104.31 33.4173 104.246 33.3746 104.192 33.3208C104.138 33.2669 104.095 33.203 104.066 33.1327C104.037 33.0624 104.022 32.9871 104.022 32.9111V20.8073C104.022 20.6536 103.96 20.5062 103.851 20.3975C103.741 20.2888 103.593 20.2278 103.438 20.2278H100.024C99.8699 20.2278 99.7217 20.1669 99.6125 20.0585C99.5033 19.9502 99.4419 19.8032 99.4419 19.6499V19.2504C99.4419 19.0972 99.5033 18.9502 99.6125 18.8418C99.7217 18.7335 99.8699 18.6726 100.024 18.6726H109.753C109.83 18.6723 109.906 18.6871 109.977 18.7161C110.048 18.745 110.112 18.7875 110.166 18.8412C110.221 18.8949 110.264 18.9587 110.293 19.0289C110.322 19.0991 110.337 19.1744 110.337 19.2504V19.6499C110.337 19.726 110.322 19.8012 110.293 19.8715C110.264 19.9417 110.221 20.0054 110.166 20.0591C110.112 20.1128 110.048 20.1553 109.977 20.1843C109.906 20.2132 109.83 20.228 109.753 20.2278H106.347C106.27 20.2278 106.194 20.2428 106.123 20.2719C106.053 20.3011 105.988 20.3438 105.934 20.3976C105.88 20.4515 105.837 20.5154 105.808 20.5857C105.779 20.656 105.764 20.7313 105.764 20.8073V32.9111C105.764 33.0648 105.703 33.2122 105.593 33.3209C105.484 33.4295 105.335 33.4906 105.18 33.4906Z" fill="#6276B8"/>
    <path d="M123.604 33.4906H123.031C122.954 33.4906 122.878 33.4756 122.807 33.4465C122.737 33.4173 122.672 33.3746 122.618 33.3208C122.564 33.2669 122.521 33.203 122.492 33.1327C122.463 33.0624 122.448 32.9871 122.448 32.9111V27.1584C122.448 27.0051 122.387 26.8582 122.278 26.7498C122.168 26.6414 122.02 26.5806 121.866 26.5806H115.32C115.166 26.5806 115.018 26.6414 114.909 26.7498C114.799 26.8582 114.738 27.0051 114.738 27.1584V32.9111C114.738 32.9871 114.723 33.0624 114.694 33.1327C114.665 33.203 114.622 33.2669 114.568 33.3208C114.514 33.3746 114.45 33.4173 114.379 33.4465C114.308 33.4756 114.232 33.4906 114.156 33.4906H113.563C113.408 33.4906 113.259 33.4295 113.15 33.3209C113.04 33.2122 112.979 33.0648 112.979 32.9111V19.2504C112.979 19.1744 112.994 19.0991 113.023 19.0289C113.052 18.9587 113.095 18.8949 113.15 18.8412C113.204 18.7875 113.268 18.745 113.339 18.7161C113.41 18.6871 113.486 18.6723 113.563 18.6726H114.156C114.31 18.6726 114.458 18.7335 114.567 18.8418C114.677 18.9502 114.738 19.0972 114.738 19.2504V24.4458C114.738 24.5991 114.799 24.746 114.909 24.8544C115.018 24.9628 115.166 25.0236 115.32 25.0236H121.874C122.029 25.0236 122.177 24.9628 122.286 24.8544C122.395 24.746 122.457 24.5991 122.457 24.4458V19.2504C122.457 19.0972 122.518 18.9502 122.627 18.8418C122.737 18.7335 122.885 18.6726 123.039 18.6726H123.613C123.768 18.6726 123.916 18.7335 124.025 18.8418C124.134 18.9502 124.196 19.0972 124.196 19.2504V32.9111C124.196 32.9878 124.181 33.0638 124.151 33.1347C124.121 33.2056 124.078 33.2699 124.023 33.3238C123.967 33.3778 123.902 33.4203 123.83 33.4489C123.759 33.4776 123.682 33.4917 123.604 33.4906Z" fill="#6276B8"/>
    <path d="M21.4086 17.1465L31.7372 31.1381C31.7765 31.1919 31.7945 31.2581 31.7878 31.3241C31.7811 31.3902 31.7502 31.4515 31.7009 31.4965C28.7974 34.0835 25.0995 35.6239 21.2046 35.8688C21.1679 35.8712 21.131 35.866 21.0964 35.8536C21.0617 35.8412 21.03 35.8218 21.0033 35.7967C20.9765 35.7716 20.9553 35.7413 20.9408 35.7077C20.9264 35.6741 20.9191 35.6379 20.9194 35.6013V17.2974C20.9214 17.2416 20.9408 17.1879 20.975 17.1435C21.0091 17.0991 21.0563 17.0664 21.1101 17.0498C21.1638 17.0333 21.2214 17.0337 21.2748 17.051C21.3283 17.0683 21.3751 17.1017 21.4086 17.1465Z" fill="#AD589E"/>
    <path d="M18.8887 35.8688C14.9943 35.6238 11.297 34.0834 8.39409 31.4965C8.34415 31.4519 8.31275 31.3905 8.30604 31.3242C8.29933 31.258 8.31778 31.1916 8.3578 31.1381L18.6864 17.1465C18.7203 17.1013 18.7677 17.0678 18.8218 17.0506C18.8759 17.0335 18.9341 17.0337 18.9881 17.0511C19.0421 17.0685 19.0893 17.1023 19.1229 17.1478C19.1566 17.1932 19.175 17.2479 19.1756 17.3043V35.6013C19.1756 35.638 19.1681 35.6742 19.1535 35.7078C19.1389 35.7414 19.1175 35.7717 19.0906 35.7968C19.0637 35.8219 19.0319 35.8412 18.9972 35.8536C18.9624 35.866 18.9255 35.8712 18.8887 35.8688Z" fill="#3BAD5E"/>
    <path d="M37.5445 18.5474C37.5577 22.6881 36.0674 26.6951 33.3463 29.835C33.3199 29.8659 33.2867 29.8906 33.2493 29.9071C33.2119 29.9235 33.1713 29.9314 33.1304 29.9301C33.0895 29.9288 33.0494 29.9183 33.0132 29.8995C32.9769 29.8806 32.9455 29.8539 32.9211 29.8212L20.9713 13.6195C20.9372 13.5732 20.9191 13.5173 20.9194 13.46V1.49518C20.9194 1.45871 20.9268 1.42262 20.9413 1.38912C20.9559 1.35562 20.9771 1.32541 21.0038 1.30036C21.0305 1.27531 21.0621 1.25594 21.0967 1.24345C21.1312 1.23095 21.1679 1.22559 21.2046 1.22769C25.6348 1.51878 29.7877 3.46987 32.8217 6.68557C35.8558 9.90127 37.5441 14.141 37.5445 18.5457V18.5474Z" fill="#EE7663"/>
    <path d="M8.02079 5.93956C10.9731 3.15136 14.8207 1.48324 18.8887 1.22769C18.9255 1.22535 18.9624 1.23053 18.9972 1.24291C19.0319 1.2553 19.0637 1.27463 19.0906 1.29971C19.1175 1.32478 19.1389 1.35507 19.1535 1.38869C19.1682 1.42232 19.1757 1.45856 19.1756 1.49518V13.46C19.1751 13.5172 19.157 13.5728 19.1237 13.6195L7.17389 29.8127C7.14968 29.8454 7.11832 29.8723 7.08215 29.8913C7.04599 29.9103 7.00596 29.9209 6.96507 29.9224C6.92417 29.9239 6.88347 29.9162 6.846 29.8998C6.80854 29.8835 6.77528 29.859 6.74872 29.8281C4.12144 26.7992 2.63894 22.9575 2.55573 18.9624C2.50051 16.5335 2.95822 14.1201 3.89942 11.8773C4.84063 9.63451 6.2445 7.61191 8.02079 5.93956Z" fill="#FFED33"/>
    <path d="M18.9492 37.3983C15.6081 37.2117 12.3765 36.1503 9.58321 34.3222C9.52924 34.2882 9.46492 34.2743 9.40159 34.2827C9.33825 34.2912 9.27996 34.3216 9.23699 34.3685C9.19402 34.4155 9.16913 34.4759 9.1667 34.5393C9.16427 34.6027 9.18446 34.6648 9.22371 34.7149L18.7297 46.4568C18.7651 46.5002 18.8132 46.5316 18.8674 46.5466C18.9216 46.5617 18.9791 46.5596 19.0321 46.5408C19.085 46.522 19.1308 46.4873 19.163 46.4415C19.1952 46.3957 19.2123 46.3412 19.2119 46.2853V37.6658C19.2115 37.5961 19.1839 37.5294 19.1349 37.4795C19.0859 37.4296 19.0193 37.4005 18.9492 37.3983Z" fill="#00AFE0"/>
    <path d="M20.9209 37.6641V46.1396C20.9205 46.1954 20.9376 46.25 20.9698 46.2957C21.002 46.3415 21.0477 46.3762 21.1007 46.3951C21.1537 46.4139 21.2112 46.4159 21.2654 46.4009C21.3196 46.3858 21.3677 46.3544 21.4031 46.3111L30.9955 34.6343C31.0378 34.5848 31.0605 34.5217 31.0594 34.4567C31.0583 34.3918 31.0334 34.3295 30.9894 34.2814C30.9454 34.2334 30.8853 34.2028 30.8203 34.1955C30.7552 34.1882 30.6897 34.2046 30.636 34.2416C27.8245 36.1136 24.5587 37.2036 21.1784 37.3983C21.1096 37.4022 21.0448 37.4317 20.9971 37.481C20.9493 37.5303 20.9221 37.5957 20.9209 37.6641Z" fill="#6276B8"/>
</svg>
